<?xml version="1.0" encoding="utf-8"?>
<!-- Generator: Adobe Illustrator 23.0.5, SVG Export Plug-In . SVG Version: 6.00 Build 0)  -->
<svg version="1.1" id="Layer_1" xmlns="http://www.w3.org/2000/svg" xmlns:xlink="http://www.w3.org/1999/xlink" x="0px" y="0px"
	 viewBox="0 0 400 640" style="enable-background:new 0 0 400 640;" xml:space="preserve">
<style type="text/css">
	.st0{fill:none;stroke:#00A5FF;stroke-width:3;stroke-miterlimit:10;}
</style>
<path class="st0" d="M126.2,371.4l-13.9-12.8c0,0-4.8-20.3,0-37.4c0,0,3.7-76.9,3.7-78.5s2.7-16.6,5.3-18.7l2.7-79
	c0,0,1.1-29.9,35.2-26.2c0,0,14.4-0.5,21.9-12.3V87.9c0,0-9.6-10.7-8-16.6c0,0-15-14.4-3.7-21.4c0,0-1.6-35.2,25.6-35.2
	c0,0,38.5-5.3,31.5,34.7c0,0,14.4,4.3,0.5,18.2c0,0-2.1,13.9-10.1,18.2v18.2c0,0,6.9,13.4,33.1,15.5c0,0,19.2,4.8,22.4,26.7
	c0,0-2.1,71.6,1.6,75.3c0,0,7.5,11.7,7.5,13.9c0,2.1,2.7,76.4,2.7,76.4s9.1,35.8,2.1,42.7L272.5,373c0,0-5.9,0.5-2.7-6.4l8-11.2
	l-2.1-21.4h-3.2c0,0,2.7,16-3.7,18.2c0,0-2.7-30.4-0.5-32.6c2.1-2.1,3.2-5.3,3.2-5.3l-2.7-22.4L257,251.3l-1.1-26.2l-6.9-32
	l-4.8,11.7l-0.5,36.3c0,0,34.7,51.3,9.6,161.8l-9.1,39.5l-2.7,32c0,0,2.7,49.7-5.9,86c0,0-5.9,27.8-5.9,37.4l0.5,5.3
	c0,0,11.2,20.3,13.9,18.2c0,0,3.2,17.6-21.4,11.2c0,0-8.5-13.4-11.7-13.4l-0.5-78.5c0,0-9.1-41.7-1.1-53.4l0.5-28.8l-5.9-124.4
	c0,0-4.3-5.3-10.1,1.6l-6.4,122.8l-1.6,21.4c0,0,8.5,42.7,2.1,54.5l-2.1,62.5l1.6,20.8c0,0-8,10.1-14.4,15.5l-22.4-3.2l15-24
	c0,0,0-64.1-5.9-66.8c0,0-8.5-54.5-3.7-71c0,0-14.4-114.8-19.8-115.9c0,0-2.1-92.4,19.8-107.3c0,0-2.7-55-7.5-53.9l-5.9,31.5
	c0,0,0.5,28.3-2.1,29.4l-13.4,44.3l-1.1,18.2l4.3,8l-0.5,28.8c0,0-5.9-1.6-5.9-4.8l-1.1-12.8l-1.6,20.3l6.9,13.4L126.2,371.4z"/>
</svg>
