<?xml version="1.0" encoding="iso-8859-1"?>
<!-- Generator: Adobe Illustrator 19.0.0, SVG Export Plug-In . SVG Version: 6.00 Build 0)  -->
<svg version="1.1" id="Layer_1" xmlns="http://www.w3.org/2000/svg" xmlns:xlink="http://www.w3.org/1999/xlink" x="0px" y="0px"
	 viewBox="0 0 512 512" style="enable-background:new 0 0 512 512;" xml:space="preserve">
<g>
	<g>
		<g>
			<path d="M410.143,266.837l-68.736-116.48c-9.984-13.995-26.219-22.336-43.392-22.336H213.94
				c-17.173,0-33.408,8.341-43.904,23.104l-67.691,114.923c-5.803,8.128-7.765,18.347-5.355,28.053
				c2.411,9.707,8.917,17.835,17.856,22.293c15.019,7.509,33.6,2.773,43.819-11.925l21.248-38.549l-19.755,105.429
				c-0.597,3.136,0.235,6.336,2.261,8.789s5.035,3.861,8.213,3.861h32v96c0,17.643,14.357,32,32,32c8.213,0,15.659-3.2,21.333-8.32
				c5.675,5.12,13.12,8.32,21.333,8.32c17.643,0,32-14.357,32-32v-96h32c3.179,0,6.229-1.365,8.256-3.819
				c2.027-2.453,2.859-5.675,2.261-8.789L332.02,265.813l21.909,39.637c9.6,13.76,28.181,18.475,43.221,10.965
				c8.939-4.459,15.445-12.587,17.856-22.293C417.396,284.416,415.455,274.176,410.143,266.837z M245.3,480
				c0,5.888-4.779,10.667-10.667,10.667s-10.667-4.779-10.667-10.667v-96H245.3V480z M287.967,480
				c0,5.888-4.779,10.667-10.667,10.667s-10.667-4.779-10.667-10.667v-96h21.333V480z M394.271,288.939
				c-0.917,3.691-3.285,6.656-6.699,8.363c-5.611,2.816-12.608,1.067-15.595-3.136l-53.333-96.661
				c-2.539-4.565-7.979-6.635-12.949-4.885c-4.928,1.771-7.829,6.869-6.869,12.011l29.632,158.037h-144.96l29.589-158.016
				c0.981-5.163-1.941-10.24-6.869-12.011c-4.949-1.749-10.389,0.32-12.949,4.885l-52.715,95.701
				c-3.605,5.141-10.56,6.912-16.192,4.096c-3.413-1.685-5.781-4.672-6.699-8.363c-0.917-3.691-0.192-7.424,2.517-11.307
				l67.691-114.923c6.016-8.384,15.744-13.397,26.048-13.397h84.075c10.325,0,20.053,5.013,25.536,12.608l68.736,116.48
				C394.463,281.515,395.188,285.248,394.271,288.939z"/>
			<path d="M255.967,106.667c29.397,0,53.333-23.936,53.333-53.333S285.364,0,255.967,0s-53.333,23.936-53.333,53.333
				S226.57,106.667,255.967,106.667z M255.967,21.333c17.643,0,32,14.357,32,32c0,17.643-14.357,32-32,32s-32-14.357-32-32
				C223.967,35.691,238.324,21.333,255.967,21.333z"/>
		</g>
	</g>
</g>
<g>
</g>
<g>
</g>
<g>
</g>
<g>
</g>
<g>
</g>
<g>
</g>
<g>
</g>
<g>
</g>
<g>
</g>
<g>
</g>
<g>
</g>
<g>
</g>
<g>
</g>
<g>
</g>
<g>
</g>
</svg>
