<?xml version="1.0" encoding="utf-8"?>
<!-- Generator: Adobe Illustrator 23.0.5, SVG Export Plug-In . SVG Version: 6.00 Build 0)  -->
<svg version="1.1" id="Layer_1" xmlns="http://www.w3.org/2000/svg" xmlns:xlink="http://www.w3.org/1999/xlink" x="0px" y="0px"
	 viewBox="0 0 400 640" style="enable-background:new 0 0 400 640;" xml:space="preserve">
<style type="text/css">
	.st0{fill:none;stroke:#00A5FF;stroke-width:3;stroke-miterlimit:10;}
</style>
<path class="st0" d="M126.8,360.1c0,0-19.7,4.1-28-23.8l3.1-23.8l2.1-92.3l2.1-7.3l15.5-48.7c0,0,1-35.2,27-45.6
	c0,0,35.2-6.2,35.2-14.5V89.5c0,0-6.2-10.4-6.2-15.5c0,0-15.9-16.7-2.9-21.2V31.3c0,0,2.5-18.2,31.2-20.3c0,0,23.9,0.4,25.3,21.4
	l-0.4,18.9c0,0,14.7,1.4-3.5,20.3c0,0-0.4,10.5-4.6,14v17.2c0,0,6.3,10.2,36.8,15.8c0,0,30.2,10.2,25.3,42.4
	c0,0,11.6,23.2,16.5,51.9l3.5,99.3c0,0,2.8,23.2,1.4,27c0,0-7.4,26-27.7,23.2c0,0-3.2-2.8,10.2-14.7c0,0-8.1,4.6-10.5,2.8
	c0,0,7-8.8,11.2-10.5v-8.4c0,0-6.3,10.9-11.2,10.2c0,0-3.2-2.1,4.6-15.1c0,0,0.4-15.4,6-16.5l0.4-17.5c0,0-8.8-33-13-44.6
	c0,0-0.7-25.6,0.4-29.1c0,0-10.9-38.9-16.8-41.4c0,0-12.6,46.3-6,73.3c0,0,29.8,86.3-2.8,175c0,0-2.5,30.5-1.1,33.7
	c0,0-1.8,50.2-6,77.9c0,0-7,25.3-6.7,45.3l10.5,12.3c0,0,17.9,11.9,21,15.8c0,0-4.6,22.1-28.1,6.7L229.3,607c0,0-17.9,1.8-20-6.7
	c0,0-1.1-14.4,3.9-18.2c0,0,1.1-43.8-1.4-50.5c0,0-7-35.8-1.8-46.7c0,0,2.1-36.5-1.8-42.1c0,0,0-65.6-4.9-68.1l0.4-32.3h-4.2
	l0.4,31.2c0,0-10.9,63.1-8.1,70.9c0,0-3.2,30.2,0,37.9c0,0,1.8,31.2-4.2,50.9c0,0-5.3,32.6-3.2,44.6c0,0,9.8,23.9-4.9,26.7
	l-17.5,0.7c0,0-4.2,3.5-14.7,11.9c0,0-19.3,7.4-27.4-4.6c0,0-2.8-8.8,15.4-15.1c0,0,22.8-9.8,24.9-18.6c0,0-5.3-64.2-9.1-71.2
	c0,0,1.1-56.1,2.5-72.3c0,0-29.5-85.6-10.5-140.3c0,0,20.3-62.4,3.5-117.2l-13.3,37.9c0,0-3.5,49.1-14,72.3c0,0-3.5,14-2.1,20.3
	l4.9,7l-0.7,7c0,0,6.3,14.7,2.8,18.2l5.6,7c0,0,2.1,7-14-4.2C115.7,343.6,135.7,364,126.8,360.1z"/>
</svg>
